<svg width="900" height="1200" viewBox="0 0 900 1200" fill="none" xmlns="http://www.w3.org/2000/svg">
  <rect width="900" height="1200" fill="#EEEAE1"/>
  <rect x="60" y="60" width="780" height="1080" fill="#F8F4EA" stroke="#1F1F23" stroke-width="6"/>
  <path d="M450 190C367 190 300 257 300 340C300 423 367 490 450 490C533 490 600 423 600 340C600 257 533 190 450 190Z" stroke="#252525" stroke-width="24"/>
  <path d="M295 645C340 585 394 555 450 555C506 555 560 585 605 645C650 706 673 779 673 864H227C227 779 250 706 295 645Z" stroke="#252525" stroke-width="24"/>
  <path d="M258 924H642" stroke="#252525" stroke-width="24" stroke-linecap="round"/>
  <path d="M210 1012H690" stroke="#252525" stroke-width="18" stroke-linecap="round"/>
  <text x="450" y="1090" text-anchor="middle" fill="#252525" font-family="Georgia, serif" font-size="38">BARGUE PLACEHOLDER</text>
</svg>

